<svg xmlns="http://www.w3.org/2000/svg" width="20" height="20" fill="none">
  <g clip-path="url(#clip0)">
    <path fill-rule="evenodd" clip-rule="evenodd" d="M.045 19.556c-.1-1.109-.046-2.184.289-3.22.206-.646.732-1.065 1.377-1.263.918-.286 1.86-.49 2.781-.761.553-.15 1.093-.346 1.613-.585 1.159-.565 1.35-1.382.81-2.548a39.083 39.083 0 0 1-1.602-3.961C4.9 5.986 4.881 4.7 5.224 3.423 5.715 1.575 7.11.333 9.043.073c1.4-.188 2.737-.048 3.924.797 1.771 1.259 2.104 3.07 1.897 5.033-.192 1.823-.865 3.513-1.73 5.126-.74 1.38-.462 2.257 1.01 2.825.96.37 1.98.59 2.974.88.408.12.83.206 1.218.373.751.325 1.305.843 1.398 1.703.097.9.175 1.803.266 2.745H.043h.002z" fill="#fff"/>
  </g>
  <defs>
    <clipPath id="clip0">
      <path fill="#fff" d="M0 0h20v19.556H0z"/>
    </clipPath>
  </defs>
</svg>